<?xml version="1.0" standalone="no"?>
<!DOCTYPE svg PUBLIC "-//W3C//DTD SVG 20010904//EN"
 "http://www.w3.org/TR/2001/REC-SVG-20010904/DTD/svg10.dtd">
<svg version="1.0" xmlns="http://www.w3.org/2000/svg"
 width="680.000000pt" height="340.000000pt" viewBox="0 0 680.000000 340.000000"
 preserveAspectRatio="xMidYMid meet">

<g transform="translate(0.000000,340.000000) scale(0.100000,-0.100000)"
fill="#000000" stroke="none">
<path d="M3391 2214 c-9 -11 -10 -18 -3 -23 17 -10 1 -27 -40 -44 -21 -9 -38
-22 -38 -29 1 -19 25 -48 41 -49 8 0 4 -5 -9 -11 -19 -9 -26 -8 -43 11 -25 26
-59 24 -74 -4 -31 -61 -78 -118 -88 -108 -3 3 -22 0 -42 -7 -20 -7 -47 -9 -60
-6 -31 8 -42 43 -20 65 16 15 17 15 6 -6 -9 -17 -8 -25 5 -37 8 -9 21 -16 27
-15 9 0 8 2 0 6 -20 8 -15 23 8 23 12 0 17 -4 14 -11 -9 -13 64 -1 83 14 15
12 16 59 0 75 -18 18 -58 15 -58 -4 0 -10 6 -14 15 -10 8 3 15 1 15 -5 0 -6
-18 -7 -49 -3 -65 8 -91 -6 -91 -51 0 -51 32 -70 94 -54 26 6 48 10 51 8 2 -2
-5 -15 -16 -27 l-19 -24 -65 22 c-43 14 -66 27 -67 38 0 9 -2 22 -3 27 -2 6
-3 15 -4 20 -2 17 -59 75 -74 75 -8 0 -13 10 -13 23 1 16 -5 23 -22 25 -13 2
-25 10 -28 18 -2 8 -6 21 -9 30 -7 21 -18 11 -20 -17 -1 -11 -12 -26 -26 -33
-16 -8 -23 -20 -22 -34 2 -12 -3 -22 -10 -23 -34 -1 -92 -134 -65 -150 6 -4 8
-16 5 -28 -3 -12 0 -21 6 -21 28 -1 -21 -19 -65 -25 -49 -7 -77 -33 -62 -57 5
-8 -18 -10 -87 -5 -82 5 -91 4 -74 -8 64 -44 63 -42 16 -56 -40 -12 -42 -13
-20 -22 13 -5 93 -10 177 -10 123 -2 154 1 162 12 7 13 21 12 102 -2 121 -22
207 -22 214 -2 5 12 19 14 73 9 36 -3 78 -10 94 -16 22 -9 31 -7 46 6 22 20
30 20 70 0 18 -9 41 -14 52 -11 10 3 21 2 24 -3 6 -9 71 3 108 20 24 12 32 11
58 -4 20 -12 34 -14 42 -8 20 15 157 24 173 11 21 -17 219 -19 273 -2 24 8 64
17 88 20 24 3 46 10 50 16 4 7 -10 8 -43 2 -78 -12 -97 -11 -101 5 -4 13 -3
13 6 0 10 -13 12 -13 21 0 5 8 10 10 10 3 0 -6 8 -9 19 -6 20 5 18 42 -3 44
-6 1 0 5 14 9 26 8 93 12 74 4 -15 -6 -6 -41 12 -48 20 -8 44 3 38 17 -3 8 16
12 61 12 36 1 65 0 65 -2 0 -1 -12 -9 -27 -17 l-28 -14 30 -8 30 -8 -25 -7
c-14 -4 -39 -7 -56 -8 -29 -1 -31 1 -27 27 l4 27 -19 -22 c-11 -13 -30 -23
-41 -23 -12 0 -21 -4 -21 -10 0 -11 172 -14 235 -3 l40 6 -49 17 -49 16 36 23
c20 12 37 25 37 27 0 3 -40 2 -88 -2 -79 -6 -90 -5 -95 11 -6 14 -18 16 -65
14 -31 -1 -65 1 -75 6 -10 4 -34 3 -53 -3 -31 -9 -34 -8 -34 10 0 14 5 18 15
15 8 -4 17 -2 20 3 3 5 13 6 22 3 12 -5 15 -2 10 10 -4 10 -2 17 4 17 6 0 9 7
5 15 -3 9 0 15 10 15 10 0 14 6 10 15 -3 9 1 15 11 15 12 0 13 3 3 15 -10 12
-9 16 5 21 17 7 17 8 1 20 -16 12 -16 13 0 22 16 9 15 10 -5 17 -18 5 -20 9
-10 21 9 11 7 14 -15 14 -24 0 -25 2 -16 20 9 18 8 20 -14 20 -19 0 -24 4 -19
16 4 12 0 14 -22 8 -20 -5 -26 -4 -21 5 15 23 -41 -1 -60 -27 -11 -15 -41 -10
-127 24 -9 3 -17 2 -17 -3 0 -6 25 -18 55 -28 30 -11 55 -23 55 -27 0 -4 -15
-14 -34 -22 -38 -16 -50 -46 -30 -73 17 -23 17 -33 -1 -33 -7 0 -19 -8 -24
-17 -6 -10 -11 -15 -11 -10 0 4 -9 -2 -20 -13 -12 -12 -33 -20 -53 -20 -33 0
-38 4 -65 64 -3 4 11 5 29 1 82 -18 119 -3 119 51 0 44 -27 58 -92 51 -38 -5
-50 -3 -55 8 -9 24 -23 17 -23 -11 0 -14 -4 -23 -10 -19 -5 3 -10 -3 -10 -14
0 -21 12 -21 105 -7 30 4 34 3 15 -3 -24 -9 -24 -9 -2 -10 27 -1 29 -18 2 -24
-18 -4 -18 -5 1 -3 12 0 27 9 33 19 15 25 -16 48 -58 41 l-31 -4 30 10 c57 18
98 -17 69 -59 -14 -20 -21 -21 -77 -15 -65 7 -97 18 -97 34 0 5 -14 29 -31 54
-34 51 -68 61 -92 26 -11 -17 -19 -19 -38 -11 -14 6 -18 10 -8 10 9 1 22 12
29 26 11 20 11 27 0 40 -7 8 -20 15 -29 15 -10 0 -26 7 -37 15 -16 12 -17 16
-5 24 12 8 12 12 -2 25 -19 19 -18 19 -36 0z m59 -90 c0 -2 -7 -4 -15 -4 -8 0
-15 4 -15 10 0 5 7 7 15 4 8 -4 15 -8 15 -10z m-50 2 c0 -11 -19 -15 -25 -6
-3 5 1 10 9 10 9 0 16 -2 16 -4z m-45 -16 c-3 -5 -11 -10 -16 -10 -6 0 -7 5
-4 10 3 6 11 10 16 10 6 0 7 -4 4 -10z m649 -5 c-4 -8 -11 -15 -16 -15 -6 0
-5 6 2 15 7 8 14 15 16 15 2 0 1 -7 -2 -15z m36 -16 c-7 -11 -14 -18 -17 -15
-3 3 0 12 7 21 18 21 23 19 10 -6z m-456 -36 c7 -17 -10 -43 -26 -43 -6 0 -5
7 2 15 9 11 10 19 3 26 -8 8 -13 7 -18 -2 -5 -8 -4 -10 3 -5 7 4 12 2 12 -3 0
-6 -7 -11 -15 -11 -18 0 -20 21 -4 37 14 14 35 7 43 -14z m480 13 c-10 -8 -21
-12 -24 -10 -5 6 21 24 34 24 6 0 1 -6 -10 -14z m-776 -18 c2 -12 -3 -18 -15
-18 -15 0 -16 2 -3 10 13 8 12 10 -2 10 -21 0 -23 -11 -6 -28 8 -8 8 -12 1
-12 -6 0 -13 -9 -16 -21 -7 -26 -32 -20 -32 7 0 13 6 18 19 16 17 -3 18 -1 8
11 -7 8 -9 22 -6 31 8 22 48 17 52 -6z m719 8 c-3 -8 2 -16 12 -19 15 -4 18
-14 17 -56 -1 -28 2 -45 6 -38 6 9 8 8 8 -3 0 -8 -5 -22 -10 -30 -7 -11 -10
-11 -10 -2 0 7 -5 10 -10 7 -6 -3 -13 0 -16 9 -3 8 -12 12 -20 9 -21 -8 -17
11 6 32 22 20 29 44 8 27 -7 -5 -38 -12 -68 -14 -30 -3 -49 -3 -42 -1 6 3 12
9 12 15 0 6 -7 8 -15 4 -18 -7 -19 1 -2 18 19 20 40 24 61 14 12 -7 22 -6 29
1 8 8 7 11 -3 11 -9 0 -8 5 6 15 24 18 38 19 31 1z m-557 -4 c17 -8 25 -32 10
-32 -5 0 -10 4 -10 8 0 5 -20 8 -45 7 -25 -1 -45 1 -45 6 0 15 63 23 90 11z
m-570 -17 c-6 -8 -9 -23 -5 -35 4 -13 0 -31 -10 -46 -9 -13 -13 -30 -9 -36 4
-6 1 -9 -7 -6 -8 3 -13 13 -13 22 1 9 -6 16 -16 16 -13 0 -17 -5 -13 -20 3
-11 0 -20 -6 -20 -6 0 -11 6 -11 14 0 7 -7 19 -15 26 -8 7 -15 24 -15 39 0 15
-5 32 -11 38 -7 7 8 11 52 12 34 1 65 3 67 6 12 12 23 3 12 -10z m1215 5 c-28
-12 -37 -12 -30 0 3 6 16 10 28 9 21 0 21 -1 2 -9z m-755 -10 c0 -5 -8 -10
-17 -10 -15 0 -16 2 -3 10 19 12 20 12 20 0z m170 0 c12 -8 11 -10 -7 -10 -13
0 -23 5 -23 10 0 13 11 13 30 0z m-365 -25 c0 -5 -16 -11 -35 -12 l-35 -1 35
7 35 8 -32 6 -33 7 33 -2 c17 -2 32 -7 32 -13z m472 -1 c10 -26 -14 -41 -35
-21 -15 16 -15 19 -2 27 21 14 30 12 37 -6z m485 4 c-9 -9 -15 -9 -24 0 -9 9
-7 12 12 12 19 0 21 -3 12 -12z m-1035 -4 c-3 -3 -12 -4 -19 -1 -8 3 -5 6 6 6
11 1 17 -2 13 -5z m-136 -21 c13 -15 12 -15 -8 -4 -24 12 -29 21 -14 21 5 0
15 -7 22 -17z m424 7 c-3 -6 -17 -7 -31 -4 -23 6 -24 5 -24 -51 l0 -57 55 4
c30 2 55 1 55 -4 0 -4 -27 -8 -60 -8 l-60 0 0 65 0 65 36 0 c21 0 33 -4 29
-10z m53 -23 c3 -23 0 -27 -22 -27 -20 0 -24 4 -19 17 4 11 8 13 11 5 2 -7 8
-10 13 -6 14 8 11 24 -6 24 -8 0 -15 5 -15 11 0 24 35 2 38 -24z m130 -34 l3
-63 -63 2 -63 2 58 3 57 4 0 54 0 54 -55 4 -55 4 57 -1 58 -1 3 -62z m-808 54
c0 -2 -10 -12 -22 -23 l-23 -19 19 23 c18 21 26 27 26 19z m856 -52 c39 -104
-21 -223 -126 -249 -28 -7 -27 -7 43 39 71 46 99 147 62 219 -17 32 -19 50 -6
41 5 -3 17 -25 27 -50z m471 33 c-3 -8 -6 -5 -6 6 -1 11 2 17 5 13 3 -3 4 -12
1 -19z m58 12 c3 -5 -1 -10 -9 -10 -8 0 -18 5 -21 10 -3 6 1 10 9 10 8 0 18
-4 21 -10z m-848 -87 c2 -68 0 -82 -8 -63 -5 13 -8 43 -5 65 5 40 5 40 -6 8
-24 -70 15 -149 93 -188 28 -15 49 -29 46 -31 -7 -7 -78 24 -100 44 -55 49
-76 157 -43 220 9 18 18 32 19 32 1 0 3 -39 4 -87z m176 67 c3 -11 1 -20 -4
-20 -5 0 -9 9 -9 20 0 11 2 20 4 20 2 0 6 -9 9 -20z m27 10 c0 -5 -4 -10 -10
-10 -5 0 -10 5 -10 10 0 6 5 10 10 10 6 0 10 -4 10 -10z m-540 -25 c13 -14 21
-25 18 -25 -2 0 -15 11 -28 25 -13 14 -21 25 -18 25 2 0 15 -11 28 -25z m285
-53 c0 -60 -2 -69 -12 -55 -7 9 -13 29 -13 44 0 15 -7 29 -15 33 -14 5 -14 9
1 31 27 41 39 25 39 -53z m433 55 c21 -22 21 -23 2 -35 -14 -8 -20 -23 -20
-46 0 -19 -5 -38 -12 -42 -8 -5 -9 0 -5 16 3 13 2 44 -4 68 -14 64 1 80 39 39z
m305 8 c1 -5 -13 -10 -30 -11 -39 -2 -42 3 -10 16 25 10 38 9 40 -5z m-1230
-19 c-10 -13 -20 -22 -22 -20 -4 4 29 44 36 44 2 0 -4 -11 -14 -24z m622 14
c3 -5 2 -10 -4 -10 -5 0 -13 5 -16 10 -3 6 -2 10 4 10 5 0 13 -4 16 -10z m760
0 c3 -5 2 -10 -4 -10 -5 0 -13 5 -16 10 -3 6 -2 10 4 10 5 0 13 -4 16 -10z
m-587 -33 c2 -16 -2 -27 -9 -27 -6 0 -9 8 -6 20 3 11 1 20 -4 20 -5 0 -9 5 -9
11 0 23 25 1 28 -24z m-598 -2 c13 -14 21 -25 18 -25 -2 0 -15 11 -28 25 -13
14 -21 25 -18 25 2 0 15 -11 28 -25z m-180 -4 c-5 -11 -15 -23 -22 -27 -7 -5
-8 -2 -3 7 21 37 44 55 25 20z m670 2 c0 -15 -2 -15 -24 -7 -22 9 -20 20 4 20
11 0 20 -6 20 -13z m44 3 c-4 -11 0 -13 15 -9 12 3 21 1 21 -6 0 -6 -13 -11
-30 -11 -23 0 -30 4 -30 20 0 11 7 20 15 20 8 0 12 -6 9 -14z m116 -46 c0 -27
-4 -52 -10 -55 -6 -4 -10 17 -10 55 0 38 4 59 10 55 6 -3 10 -28 10 -55z m525
50 c3 -6 -1 -7 -9 -4 -18 7 -21 14 -7 14 6 0 13 -4 16 -10z m-750 -10 c3 -5 2
-10 -4 -10 -5 0 -13 5 -16 10 -3 6 -2 10 4 10 5 0 13 -4 16 -10z m-434 -26
c13 -14 17 -23 9 -19 -13 5 -46 45 -37 45 2 0 14 -11 28 -26z m133 4 c64 -22
91 -38 65 -38 -8 0 -24 -7 -35 -15 -17 -14 -15 -14 20 0 21 8 42 15 46 15 13
0 20 -44 8 -55 -8 -7 -9 -6 -3 4 6 11 4 13 -9 8 -10 -4 -30 -9 -44 -12 -23 -5
-24 -4 -7 4 11 5 29 12 40 16 11 4 15 9 8 12 -6 2 -25 -3 -42 -11 -44 -23 -68
-20 -75 9 -9 35 -23 31 -18 -5 4 -29 -12 -43 -21 -17 -2 6 -3 4 -2 -5 2 -10
-2 -21 -8 -25 -15 -9 -58 -4 -73 8 -6 5 -32 10 -58 12 -25 1 -46 5 -46 9 0 4
-7 5 -15 2 -16 -6 -21 11 -7 20 8 5 60 7 137 6 22 0 41 4 43 10 2 6 9 7 14 4
7 -4 8 -2 4 4 -7 12 2 62 12 62 3 0 32 -10 66 -22z m137 -26 c3 -23 2 -42 -2
-42 -9 0 -19 26 -19 51 0 10 -5 19 -11 19 -5 0 -7 -4 -4 -10 7 -11 -8 -14 -18
-3 -11 10 14 34 32 31 10 -2 18 -18 22 -46z m514 29 c0 -8 -6 -16 -13 -19 -8
-2 -10 2 -5 14 4 12 3 15 -5 10 -7 -4 -12 -20 -12 -36 0 -16 -4 -32 -10 -35
-11 -7 -14 68 -3 79 12 12 48 2 48 -13z m-954 -27 c-11 -15 -21 -24 -21 -20 0
10 34 55 39 51 2 -2 -6 -16 -18 -31z m99 26 c0 -5 -9 -10 -21 -10 -11 0 -17 5
-14 10 3 6 13 10 21 10 8 0 14 -4 14 -10z m1139 -11 c27 -10 31 -15 31 -49 0
-22 -4 -41 -9 -44 -5 -4 -7 4 -4 16 4 21 3 22 -7 4 -10 -15 -14 -16 -21 -5 -7
12 -11 11 -26 -3 -10 -11 -12 -18 -5 -18 6 0 31 -14 56 -31 59 -42 52 -61 -19
-55 -53 5 -120 36 -95 44 7 3 15 0 19 -6 8 -12 91 -27 91 -15 0 4 -28 17 -63
28 -59 19 -62 21 -59 50 3 24 1 28 -9 18 -24 -24 -40 -15 -36 20 6 52 78 73
156 46z m-1213 -27 c-17 -16 -18 -16 -5 5 7 12 15 20 18 17 3 -2 -3 -12 -13
-22z m124 13 c7 -9 8 -15 2 -15 -5 0 -12 7 -16 15 -3 8 -4 15 -2 15 2 0 9 -7
16 -15z m910 -10 c-7 -8 -10 -24 -7 -35 6 -25 -15 -26 -68 -4 -20 8 -40 13
-42 10 -3 -3 5 -9 18 -14 13 -5 31 -12 39 -15 8 -3 -4 -5 -27 -4 -37 2 -43 5
-43 24 0 31 13 35 55 17 20 -8 39 -13 42 -11 2 3 -11 11 -31 18 -47 17 -36 29
26 29 44 0 49 -2 38 -15z m-390 -75 c0 -44 -2 -80 -5 -80 -3 0 -23 9 -45 20
-50 25 -70 55 -70 102 l0 38 60 0 60 0 0 -80z m70 71 c0 -4 -11 -6 -25 -3 -23
4 -25 1 -25 -32 0 -29 4 -36 20 -36 11 0 20 -4 20 -9 0 -5 -9 -7 -20 -4 -14 4
-20 0 -20 -10 0 -10 11 -17 32 -19 l31 -3 -36 -17 -37 -18 0 80 0 80 30 0 c17
0 30 -4 30 -9z m60 -16 c0 -27 -25 -95 -34 -95 -4 0 -6 12 -6 26 0 14 4 23 10
19 6 -3 10 1 10 9 0 9 -4 16 -10 16 -5 0 -10 4 -10 10 0 5 7 7 15 4 9 -4 15 0
15 9 0 9 -8 18 -17 20 -14 4 -12 5 5 6 17 1 22 -4 22 -24z m-835 -15 c6 -10
-33 -29 -69 -33 -12 -1 -24 -6 -28 -12 -5 -6 -8 -5 -8 4 0 7 -6 11 -15 7 -9
-3 -15 0 -15 8 0 22 123 46 135 26z m765 0 c0 -5 -8 -10 -17 -10 -15 0 -16 2
-3 10 19 12 20 12 20 0z m190 -45 c0 -6 -8 -19 -17 -27 -15 -12 -22 -13 -42
-2 l-24 12 27 27 c22 22 30 24 41 15 8 -7 15 -18 15 -25z m-435 5 c10 -11 16
-21 14 -23 -2 -1 -12 -9 -21 -16 -16 -12 -20 -10 -37 10 -14 17 -16 28 -9 37
15 17 32 15 53 -8z m872 14 c-3 -3 -12 -4 -19 -1 -8 3 -5 6 6 6 11 1 17 -2 13
-5z m-1331 -41 c0 -14 5 -28 13 -31 10 -3 13 2 9 22 -4 22 -2 26 16 25 11 0
15 -3 9 -6 -7 -2 -13 -13 -13 -23 0 -10 6 -21 13 -24 6 -3 -15 -3 -47 1 -43 4
-57 3 -52 -6 5 -7 -2 -11 -18 -11 -19 0 -27 7 -32 25 -11 43 1 55 54 55 47 0
49 -1 48 -27z m318 12 c-4 -8 -1 -15 6 -15 7 0 10 -7 6 -15 -3 -9 0 -15 9 -15
9 0 12 6 9 15 -4 9 0 15 7 16 8 0 5 4 -6 9 -19 8 -19 9 -1 9 23 1 66 -36 66
-56 0 -10 -10 -11 -42 -6 -24 5 -69 8 -101 8 -55 0 -57 1 -57 27 0 29 12 35
72 37 29 1 36 -2 32 -14z m746 6 c0 -5 -9 -7 -19 -4 -15 4 -19 1 -15 -14 7
-27 42 -27 47 0 4 18 5 17 6 -5 1 -26 -2 -28 -36 -28 -21 0 -69 -3 -108 -7
-66 -6 -69 -5 -55 11 8 11 16 14 18 7 4 -12 62 -16 62 -3 0 4 -5 14 -10 22 -8
12 -12 13 -19 2 -7 -11 -9 -11 -14 2 -4 10 2 16 21 19 53 8 122 7 122 -2z
m260 -5 c0 -11 -19 -15 -25 -6 -3 5 1 10 9 10 9 0 16 -2 16 -4z m140 -5 c0 -6
-4 -13 -10 -16 -5 -3 -10 1 -10 9 0 9 5 16 10 16 6 0 10 -4 10 -9z m-1580 -42
l0 -29 -82 0 c-87 0 -129 12 -86 24 l23 7 -27 15 c-16 8 -28 16 -28 17 0 1 45
1 100 -1 l100 -3 0 -30z m313 24 c4 -2 7 -15 7 -29 0 -22 -3 -24 -47 -23 -27
1 -38 4 -25 6 22 4 33 43 12 43 -5 0 -10 -7 -10 -15 0 -8 -4 -15 -10 -15 -5 0
-10 9 -10 20 0 11 -5 20 -11 20 -7 0 -9 -10 -7 -25 4 -20 1 -25 -16 -24 -11 0
-15 3 -8 6 6 2 12 9 12 14 0 6 -6 7 -12 3 -9 -5 -8 -2 1 9 12 15 12 17 -4 11
-13 -5 -16 -4 -11 5 6 8 26 10 69 5 34 -4 65 -9 70 -11z m291 -9 c23 -9 20
-23 -4 -17 -12 3 -20 0 -20 -6 0 -7 6 -9 13 -5 10 6 10 4 0 -7 -16 -17 -39 2
-30 25 7 17 16 19 41 10z m363 -9 c1 -5 -2 -17 -7 -25 -8 -13 -11 -13 -22 -1
-10 10 -10 12 0 7 6 -4 12 -3 12 2 0 16 -13 22 -27 11 -13 -12 -19 2 -6 15 10
10 46 3 50 -9z m-577 -25 c0 -5 -9 -10 -20 -10 -11 0 -20 5 -20 10 0 6 9 10
20 10 11 0 20 -4 20 -10z m798 3 c-10 -2 -26 -2 -35 0 -10 3 -2 5 17 5 19 0
27 -2 18 -5z"/>
<path d="M2770 1984 c0 -9 7 -14 17 -12 25 5 28 28 4 28 -12 0 -21 -6 -21 -16z"/>
<path d="M2830 1985 c0 -8 7 -15 15 -15 8 0 15 7 15 15 0 8 -7 15 -15 15 -8 0
-15 -7 -15 -15z"/>
<path d="M2928 1783 c7 -3 16 -2 19 1 4 3 -2 6 -13 5 -11 0 -14 -3 -6 -6z"/>
<path d="M3883 1780 c2 -8 12 -16 23 -17 13 -2 15 -1 4 4 -8 3 -19 11 -23 17
-6 7 -7 6 -4 -4z"/>
<path d="M3300 1828 c0 -35 22 -70 55 -89 17 -10 33 -18 38 -18 4 -1 7 28 7
64 l0 65 -50 0 c-45 0 -50 -2 -50 -22z m71 -16 c-11 -4 -11 -6 0 -13 12 -7 11
-9 -1 -9 -13 0 -13 -1 0 -10 11 -7 11 -10 2 -10 -7 0 -10 -5 -6 -12 4 -7 3 -8
-5 -4 -6 4 -9 11 -6 16 3 5 -2 13 -11 18 -15 8 -15 10 1 15 9 4 13 11 10 17
-4 6 1 7 11 3 13 -5 14 -8 5 -11z"/>
<path d="M2697 1748 c-8 -29 -5 -31 27 -19 14 6 26 17 26 26 0 21 -17 19 -23
-2 -4 -17 -5 -17 -6 0 -1 24 -18 21 -24 -5z"/>
<path d="M3024 1750 c0 -14 7 -20 24 -20 22 0 23 2 11 17 -10 11 -10 14 -1 9
6 -4 12 -2 12 3 0 6 -10 11 -23 11 -16 0 -23 -6 -23 -20z"/>
<path d="M3740 1750 c0 -16 5 -21 23 -18 12 2 22 10 22 18 0 8 -10 16 -22 18
-18 3 -23 -2 -23 -18z m30 0 c0 -5 -4 -10 -10 -10 -5 0 -10 5 -10 10 0 6 5 10
10 10 6 0 10 -4 10 -10z"/>
<path d="M3670 1978 c0 -4 18 -8 40 -8 22 0 40 4 40 9 0 6 -18 9 -40 8 -22 -1
-40 -5 -40 -9z"/>
<path d="M4137 1774 c-10 -10 -9 -34 2 -34 5 0 12 8 14 18 4 16 5 16 6 0 0
-10 6 -18 12 -18 6 0 9 8 7 17 -3 19 -29 29 -41 17z"/>
<path d="M2095 1555 c-5 -2 -23 -6 -38 -10 -48 -10 -77 -51 -77 -105 0 -64 24
-91 115 -135 65 -31 105 -64 105 -87 0 -5 -9 -17 -20 -28 -32 -32 -91 -27
-135 11 -19 17 -35 37 -35 44 0 8 -4 17 -10 20 -6 4 -10 -16 -10 -53 l0 -59
33 -1 c17 0 61 -4 97 -7 58 -6 69 -4 100 17 46 31 66 87 50 140 -12 41 -43 68
-111 94 -66 26 -99 52 -99 78 0 29 17 44 59 52 28 6 37 2 76 -40 l45 -46 0 55
c0 30 -4 55 -9 55 -5 0 -11 -4 -13 -10 -2 -6 -19 -4 -43 5 -39 14 -60 17 -80
10z"/>
<path d="M3704 1549 c-30 -9 -34 -16 -89 -171 -63 -182 -77 -208 -105 -208
-11 0 -20 -4 -20 -10 0 -6 34 -10 81 -10 51 0 78 4 74 10 -3 6 -15 10 -26 10
-28 0 -33 22 -15 64 15 36 16 36 74 36 l60 0 16 -41 c18 -44 15 -59 -14 -59
-10 0 -22 -4 -25 -10 -4 -7 68 -10 209 -10 137 0 216 4 216 10 0 6 -8 10 -18
10 -33 0 -42 22 -42 97 0 72 1 75 55 158 30 47 66 90 80 97 42 19 28 28 -45
28 -72 0 -84 -6 -50 -28 23 -14 20 -27 -26 -95 l-32 -48 -29 48 c-41 67 -48
92 -29 99 40 15 7 24 -89 24 -58 0 -105 -4 -105 -8 0 -5 14 -15 31 -23 23 -10
47 -40 85 -103 47 -78 54 -96 54 -142 0 -80 -12 -104 -54 -104 -44 0 -44 0
-121 223 -32 92 -61 167 -64 166 -3 0 -20 -5 -37 -10z m0 -176 c9 -28 16 -54
16 -57 0 -3 -20 -6 -44 -6 l-44 0 21 65 c12 36 24 62 28 57 3 -4 14 -30 23
-59z"/>
<path d="M5921 1550 c-18 -4 -45 -20 -60 -34 -21 -21 -26 -36 -26 -76 0 -62
23 -87 132 -144 59 -31 79 -47 81 -64 12 -86 -142 -79 -178 7 -18 44 -31 26
-24 -34 6 -48 8 -50 38 -51 17 -1 57 -5 90 -9 47 -7 65 -5 91 9 41 22 65 64
65 114 0 55 -30 87 -121 131 -40 20 -79 46 -87 58 -13 20 -11 25 13 49 21 21
32 25 58 20 34 -7 73 -39 83 -68 11 -35 24 -18 24 31 0 47 -12 72 -24 52 -4
-5 -25 -3 -53 5 -51 15 -53 15 -102 4z"/>
<path d="M630 1490 c0 -33 4 -60 10 -60 6 0 10 6 10 14 0 24 34 56 68 62 l32
7 0 -160 c0 -164 -4 -183 -42 -183 -10 0 -18 -4 -18 -10 0 -6 47 -10 120 -10
73 0 120 4 120 10 0 6 -11 10 -25 10 -14 0 -29 8 -35 19 -5 11 -10 84 -10 166
0 159 2 166 57 148 17 -6 34 -22 42 -41 22 -48 31 -39 31 28 l0 60 -180 0
-180 0 0 -60z"/>
<path d="M1000 1542 c0 -4 9 -15 20 -25 19 -16 20 -27 18 -174 l-3 -158 -30
-15 -30 -15 57 -3 c32 -2 84 -2 115 0 54 3 56 4 32 15 -34 15 -39 30 -39 109
l0 65 68 -3 67 -3 3 -62 c3 -65 -9 -103 -33 -103 -7 0 -17 -4 -20 -10 -4 -6
32 -10 99 -10 105 0 126 6 84 25 -22 10 -23 16 -26 155 -3 164 0 186 28 195
46 15 14 25 -79 25 -103 0 -129 -9 -86 -28 28 -13 38 -41 33 -103 l-3 -44 -67
-3 -68 -3 0 64 c0 64 16 97 48 97 7 0 12 5 12 10 0 6 -40 10 -100 10 -55 0
-100 -3 -100 -8z"/>
<path d="M1456 1541 c-3 -5 5 -12 18 -15 32 -8 36 -28 36 -184 0 -133 -8 -172
-35 -172 -7 0 -17 -4 -20 -10 -4 -7 53 -10 164 -10 l171 0 0 60 c0 33 -3 60
-8 60 -4 0 -16 -19 -27 -42 l-20 -43 -60 0 -60 0 -3 78 -3 77 31 0 c39 0 70
-16 70 -35 0 -8 5 -15 10 -15 6 0 10 29 10 66 l0 67 -25 -27 c-17 -19 -34 -26
-60 -26 l-35 0 0 75 0 75 43 0 c56 0 88 -18 109 -60 l17 -35 1 63 0 62 -159 0
c-88 0 -162 -4 -165 -9z"/>
<path d="M2286 1541 c-3 -5 5 -12 18 -15 32 -8 36 -28 36 -181 0 -143 6 -162
60 -190 38 -20 143 -19 185 0 48 23 55 50 55 198 0 144 10 177 54 177 49 0 56
-24 56 -186 0 -155 -5 -174 -42 -174 -10 0 -18 -4 -18 -10 0 -6 33 -10 80 -10
47 0 80 4 80 10 0 6 -11 10 -25 10 -14 0 -28 6 -31 13 -2 7 -3 65 -2 129 l3
116 105 -138 c89 -118 109 -139 133 -139 l27 -1 0 174 c0 145 3 177 16 190 8
9 20 16 25 16 5 0 9 5 9 10 0 12 -127 14 -134 1 -3 -4 6 -13 19 -19 24 -11 25
-15 25 -114 -1 -83 -3 -100 -13 -87 -7 8 -47 63 -91 122 l-78 107 -139 0
c-128 0 -178 -10 -129 -25 31 -10 40 -45 40 -148 -1 -108 -12 -166 -36 -184
-27 -19 -78 -16 -108 8 -26 20 -26 21 -26 165 0 144 0 144 25 156 14 6 25 15
25 20 0 11 -197 10 -204 -1z"/>
<path d="M3130 1544 c0 -5 10 -14 23 -19 22 -10 22 -13 22 -180 0 -169 0 -170
-22 -173 -13 -2 -23 -8 -23 -13 0 -13 245 -11 292 3 139 42 159 286 29 357
-38 21 -60 24 -182 29 -80 3 -139 1 -139 -4z m248 -50 c34 -22 52 -74 52 -149
0 -108 -41 -171 -107 -163 l-28 3 -3 169 -2 169 32 -7 c17 -3 43 -13 56 -22z"/>
<path d="M4330 1490 c0 -63 13 -81 23 -31 4 21 15 32 38 40 62 21 60 26 57
-150 -3 -171 -1 -165 -53 -186 -24 -9 69 -16 172 -11 47 2 62 6 48 11 -52 21
-50 15 -53 186 -3 176 -4 171 56 150 20 -7 34 -21 41 -40 17 -49 32 -35 29 29
l-3 57 -177 3 -178 2 0 -60z"/>
<path d="M4700 1542 c0 -4 9 -13 20 -20 19 -11 20 -23 20 -166 0 -162 -3 -186
-26 -186 -8 0 -14 -4 -14 -10 0 -6 38 -10 95 -10 52 0 95 3 95 8 0 4 -9 13
-20 20 -19 11 -20 23 -20 172 0 149 1 161 20 172 11 7 20 16 20 20 0 5 -43 8
-95 8 -52 0 -95 -3 -95 -8z"/>
<path d="M4920 1542 c0 -5 11 -14 24 -20 30 -13 36 -46 35 -186 -1 -133 -7
-160 -37 -164 -12 -2 -22 -8 -22 -13 0 -5 32 -9 70 -9 40 0 70 4 70 10 0 6 -6
10 -14 10 -30 0 -37 27 -34 146 l3 119 56 -140 c76 -188 78 -188 149 1 l55
146 3 -123 c1 -67 0 -129 -2 -136 -3 -7 -15 -13 -26 -13 -11 0 -20 -4 -20 -10
0 -6 42 -10 105 -10 58 0 105 4 105 9 0 5 -10 11 -22 13 -23 3 -23 5 -26 171
l-2 167 25 10 c51 19 27 31 -57 28 l-83 -3 -45 -122 c-25 -68 -47 -123 -50
-123 -3 0 -25 55 -50 123 l-45 122 -82 3 c-46 2 -83 -1 -83 -6z"/>
<path d="M5470 1542 c0 -5 11 -14 25 -20 l25 -12 0 -154 c0 -161 -3 -186 -25
-186 -8 0 -17 -4 -20 -10 -4 -7 52 -10 159 -10 l166 0 0 60 c0 63 -14 80 -25
31 -10 -47 -35 -63 -96 -59 l-54 3 0 75 0 75 32 3 c25 3 39 -3 58 -24 l25 -27
0 68 0 68 -25 -27 c-19 -21 -33 -27 -58 -24 l-32 3 0 70 0 70 30 3 c16 2 46
-1 66 -7 29 -9 40 -20 52 -49 l16 -37 0 63 1 62 -160 0 c-88 0 -160 -4 -160
-8z"/>
</g>
</svg>
